<svg xmlns="http://www.w3.org/2000/svg" width="540.538" height="98.123" viewBox="0 0 540.538 98.123">
  <g id="logo_diga" transform="translate(-2.033 70.161)">
    <g id="Grupo_482" data-name="Grupo 482" transform="translate(359.745 -58.371)">
      <g id="Grupo" transform="translate(0 0)">
        <text id="D" transform="translate(0 11)" fill="#fff" font-size="11" font-family="LucidaGrande, Lucida Grande"><tspan x="0" y="0">D</tspan></text>
        <text id="E" transform="translate(14.002 11)" fill="#fff" font-size="11" font-family="LucidaGrande, Lucida Grande"><tspan x="0" y="0">E</tspan></text>
        <text id="S" transform="translate(25.171 11)" fill="#fff" font-size="11" font-family="LucidaGrande, Lucida Grande"><tspan x="0" y="0">S</tspan></text>
        <text id="E-2" data-name="E" transform="translate(36.295 11)" fill="#fff" font-size="11" font-family="LucidaGrande, Lucida Grande"><tspan x="0" y="0">E</tspan></text>
        <text id="N" transform="translate(47.465 11)" fill="#fff" font-size="11" font-family="LucidaGrande, Lucida Grande"><tspan x="0" y="0">N</tspan></text>
        <text id="V" transform="translate(61.325 12)" fill="#fff" font-size="12" font-family="LucidaGrande, Lucida Grande"><tspan x="0" y="0">V</tspan></text>
        <text id="O" transform="translate(74.025 12)" fill="#fff" font-size="12" font-family="LucidaGrande, Lucida Grande"><tspan x="0" y="0">O</tspan></text>
        <text id="L" transform="translate(88.407 11)" fill="#fff" font-size="11" font-family="LucidaGrande, Lucida Grande"><tspan x="0" y="0">L</tspan></text>
        <text id="V-2" data-name="V" transform="translate(99.456 12)" fill="#fff" font-size="12" font-family="LucidaGrande, Lucida Grande"><tspan x="0" y="0">V</tspan></text>
        <text id="I" transform="translate(112.155 11)" fill="#fff" font-size="11" font-family="LucidaGrande, Lucida Grande"><tspan x="0" y="0">I</tspan></text>
        <text id="M" transform="translate(119.852 11)" fill="#fff" font-size="11" font-family="LucidaGrande, Lucida Grande"><tspan x="0" y="0">M</tspan></text>
        <text id="E-3" data-name="E" transform="translate(135.39 11)" fill="#fff" font-size="11" font-family="LucidaGrande, Lucida Grande"><tspan x="0" y="0">E</tspan></text>
        <text id="N-2" data-name="N" transform="translate(146.56 11)" fill="#fff" font-size="11" font-family="LucidaGrande, Lucida Grande"><tspan x="0" y="0">N</tspan></text>
        <text id="T" transform="translate(160.42 11)" fill="#fff" font-size="11" font-family="LucidaGrande, Lucida Grande"><tspan x="0" y="0">T</tspan></text>
        <text id="O-2" data-name="O" transform="translate(172.825 12)" fill="#fff" font-size="12" font-family="LucidaGrande, Lucida Grande"><tspan x="0" y="0">O</tspan></text>
      </g>
    </g>
    <g id="Grupo_483" data-name="Grupo 483" transform="translate(359.745 -40.048)">
      <g id="Grupo-2" data-name="Grupo" transform="translate(0 0)">
        <text id="E-4" data-name="E" transform="translate(0 11)" fill="#fff" font-size="11" font-family="LucidaGrande, Lucida Grande"><tspan x="0" y="0">E</tspan></text>
        <text id="I-2" data-name="I" transform="translate(20.275 11)" fill="#fff" font-size="11" font-family="LucidaGrande, Lucida Grande"><tspan x="0" y="0">I</tspan></text>
        <text id="N-3" data-name="N" transform="translate(27.902 11)" fill="#fff" font-size="11" font-family="LucidaGrande, Lucida Grande"><tspan x="0" y="0">N</tspan></text>
        <text id="T-2" data-name="T" transform="translate(41.694 11)" fill="#fff" font-size="11" font-family="LucidaGrande, Lucida Grande"><tspan x="0" y="0">T</tspan></text>
        <text id="E-5" data-name="E" transform="translate(54.031 11)" fill="#fff" font-size="11" font-family="LucidaGrande, Lucida Grande"><tspan x="0" y="0">E</tspan></text>
        <text id="G" transform="translate(65.131 11)" fill="#fff" font-size="11" font-family="LucidaGrande, Lucida Grande"><tspan x="0" y="0">G</tspan></text>
        <text id="R" transform="translate(78.703 11)" fill="#fff" font-size="11" font-family="LucidaGrande, Lucida Grande"><tspan x="0" y="0">R</tspan></text>
        <text id="A" transform="translate(91.04 11)" fill="#fff" font-size="11" font-family="LucidaGrande, Lucida Grande"><tspan x="0" y="0">A</tspan></text>
        <text id="Ç" transform="translate(104.165 11)" fill="#fff" font-size="11" font-family="LucidaGrande, Lucida Grande"><tspan x="0" y="0">Ç</tspan></text>
        <text id="Ã" transform="translate(117.316 11)" fill="#fff" font-size="11" font-family="LucidaGrande, Lucida Grande"><tspan x="0" y="0">Ã</tspan></text>
        <text id="O-3" data-name="O" transform="translate(130.44 12)" fill="#fff" font-size="12" font-family="LucidaGrande, Lucida Grande"><tspan x="0" y="0">O</tspan></text>
        <text id="E-6" data-name="E" transform="translate(150.456 11)" fill="#fff" font-size="11" font-family="LucidaGrande, Lucida Grande"><tspan x="0" y="0">E</tspan></text>
        <text id="M-2" data-name="M" transform="translate(161.556 11)" fill="#fff" font-size="11" font-family="LucidaGrande, Lucida Grande"><tspan x="0" y="0">M</tspan></text>
      </g>
    </g>
    <g id="Grupo_484" data-name="Grupo 484" transform="translate(359.745 -21.725)">
      <g id="Grupo-3" data-name="Grupo" transform="translate(0 0)">
        <text id="G-2" data-name="G" transform="translate(0 11)" fill="#fff" font-size="11" font-family="LucidaGrande, Lucida Grande"><tspan x="0" y="0">G</tspan></text>
        <text id="E-7" data-name="E" transform="translate(13.286 11)" fill="#fff" font-size="11" font-family="LucidaGrande, Lucida Grande"><tspan x="0" y="0">E</tspan></text>
        <text id="S-2" data-name="S" transform="translate(24.1 11)" fill="#fff" font-size="11" font-family="LucidaGrande, Lucida Grande"><tspan x="0" y="0">S</tspan></text>
        <text id="T-3" data-name="T" transform="translate(34.868 11)" fill="#fff" font-size="11" font-family="LucidaGrande, Lucida Grande"><tspan x="0" y="0">T</tspan></text>
        <text id="Ã-2" data-name="Ã" transform="translate(46.919 11)" fill="#fff" font-size="11" font-family="LucidaGrande, Lucida Grande"><tspan x="0" y="0">Ã</tspan></text>
        <text id="O-4" data-name="O" transform="translate(59.758 12)" fill="#fff" font-size="12" font-family="LucidaGrande, Lucida Grande"><tspan x="0" y="0">O</tspan></text>
        <text id="D-2" data-name="D" transform="translate(82.315 11)" fill="#fff" font-size="11" font-family="LucidaGrande, Lucida Grande"><tspan x="0" y="0">D</tspan></text>
        <text id="E-8" data-name="E" transform="translate(95.962 11)" fill="#fff" font-size="11" font-family="LucidaGrande, Lucida Grande"><tspan x="0" y="0">E</tspan></text>
      </g>
    </g>
    <g id="Grupo_485" data-name="Grupo 485" transform="translate(359.745 -3.401)">
      <g id="Grupo-4" data-name="Grupo">
        <text id="A-2" data-name="A" transform="translate(0 11)" fill="#fff" font-size="11" font-family="LucidaGrande, Lucida Grande"><tspan x="0" y="0">A</tspan></text>
        <text id="T-4" data-name="T" transform="translate(12.951 11)" fill="#fff" font-size="11" font-family="LucidaGrande, Lucida Grande"><tspan x="0" y="0">T</tspan></text>
        <text id="E-9" data-name="E" transform="translate(25.114 11)" fill="#fff" font-size="11" font-family="LucidaGrande, Lucida Grande"><tspan x="0" y="0">E</tspan></text>
        <text id="N-4" data-name="N" transform="translate(36.042 11)" fill="#fff" font-size="11" font-family="LucidaGrande, Lucida Grande"><tspan x="0" y="0">N</tspan></text>
        <text id="D-3" data-name="D" transform="translate(49.66 11)" fill="#fff" font-size="11" font-family="LucidaGrande, Lucida Grande"><tspan x="0" y="0">D</tspan></text>
        <text id="I-3" data-name="I" transform="translate(63.42 11)" fill="#fff" font-size="11" font-family="LucidaGrande, Lucida Grande"><tspan x="0" y="0">I</tspan></text>
        <text id="M-3" data-name="M" transform="translate(70.874 11)" fill="#fff" font-size="11" font-family="LucidaGrande, Lucida Grande"><tspan x="0" y="0">M</tspan></text>
        <text id="E-10" data-name="E" transform="translate(86.17 11)" fill="#fff" font-size="11" font-family="LucidaGrande, Lucida Grande"><tspan x="0" y="0">E</tspan></text>
        <text id="N-5" data-name="N" transform="translate(97.098 11)" fill="#fff" font-size="11" font-family="LucidaGrande, Lucida Grande"><tspan x="0" y="0">N</tspan></text>
        <text id="T-5" data-name="T" transform="translate(110.716 11)" fill="#fff" font-size="11" font-family="LucidaGrande, Lucida Grande"><tspan x="0" y="0">T</tspan></text>
        <text id="O-5" data-name="O" transform="translate(122.879 12)" fill="#fff" font-size="12" font-family="LucidaGrande, Lucida Grande"><tspan x="0" y="0">O</tspan></text>
      </g>
    </g>
    <path id="Caminho_473" data-name="Caminho 473" d="M123.65-24.649c0-18.3-6.007-23.4-18.3-23.4H99.4c-3.912,0-4.647,2.1-4.647,5.384v41.42l4.647.006h5.949c12.3,0,18.3-5.1,18.3-23.406M78.767,12.231V-45.22c0-11.787,5.5-16.264,17.624-16.264H102c24.706,0,37.629,8.67,37.629,36.835S126.71,12.186,102,12.186H96.391Z" transform="translate(30.581 3.458)" fill="#fff"/>
    <path id="Caminho_474" data-name="Caminho 474" d="M127.094,6.973V-56.272c0-3.342,1.87-5.212,5.212-5.212h5.724c3.344,0,5.214,1.87,5.214,5.212V6.973c0,3.344-1.87,5.214-5.214,5.214h-5.724c-3.342,0-5.212-1.87-5.212-5.214" transform="translate(49.841 3.458)" fill="#fff"/>
    <path id="Caminho_475" data-name="Caminho 475" d="M195.3-26.9h5.5c3.345,0,5.215,1.87,5.215,5.214v19.1c0,12.356-5.782,16.1-24.652,16.1-24.993,0-37.346-14.508-37.346-37.857,0-29.355,19.494-43.578,53.667-35.759,3.116.737,4.589,2.722,4.589,5.839v3.457c0,3.626-2.21,5.27-5.949,4.589C169.46-51.1,160.4-44.128,160.4-24.352c0,15.188,5.779,23.291,19.494,23.291,8.614,0,10.2-.962,10.2-5.439V-21.688c0-3.344,1.87-5.214,5.214-5.214" transform="translate(56.585 3.16)" fill="#fff"/>
    <path id="Caminho_476" data-name="Caminho 476" d="M220.616-42.1c-2.892-4.987-4.1-6.451-5.324-6.461-2.947-.024-3.942,1.474-4,6.461l.068,22.329h21.845ZM248.951,8.059,240.742-6.448H211.413l.052,14.507c-.011,2.947-1.519,4.419-4.579,4.419h-5.839c-3.738,0-6.1-2.324-6.04-5.893V-43.455c.136-14.055,5.12-18.76,16.395-18.76s18.673,4.649,26.6,18.76L267.269,6.585c2.094,3.569,1.056,5.893-2.687,5.893h-8.537c-3.059,0-5.405-1.473-7.095-4.419" transform="translate(76.906 3.167)" fill="#fff"/>
    <path id="Caminho_477" data-name="Caminho 477" d="M47.7-34.2,22.238-19.5,47.7-4.806Z" transform="translate(8.052 14.33)" fill="#fff"/>
    <path id="Caminho_478" data-name="Caminho 478" d="M41.443-56.958v29.4L66.9-42.258Z" transform="translate(15.706 5.262)" fill="#fff"/>
    <path id="Caminho_479" data-name="Caminho 479" d="M21.738,6.571,47.2-8.128l-25.46-14.7Z" transform="translate(7.853 18.864)" fill="#fff"/>
    <path id="Caminho_480" data-name="Caminho 480" d="M21.738-38.936l25.46-14.7-25.46-14.7Z" transform="translate(7.853 0.728)" fill="#fff"/>
    <path id="Caminho_481" data-name="Caminho 481" d="M61.148-45.461v29.017A18.255,18.255,0,0,0,68.3-30.953a18.257,18.257,0,0,0-7.152-14.508" transform="translate(23.559 9.844)" fill="#fff"/>
    <path id="Caminho_482" data-name="Caminho 482" d="M20.267-70.161a18.267,18.267,0,0,0-9.121,2.45,18.254,18.254,0,0,0-9,13.5L27.327-68.749a18.469,18.469,0,0,0-7.06-1.413" transform="translate(0.046)" fill="#fff"/>
    <path id="Caminho_483" data-name="Caminho 483" d="M67.366-45.566,41.943-30.888,67.366-16.21Z" transform="translate(15.906 9.802)" fill="#fff"/>
    <path id="Caminho_484" data-name="Caminho 484" d="M41.443-4.805,66.9-19.505,41.443-34.2Z" transform="translate(15.706 14.33)" fill="#fff"/>
    <path id="Caminho_485" data-name="Caminho 485" d="M2.033-56.958v29.4l25.46-14.7Z" transform="translate(0 5.262)" fill="#fff"/>
    <path id="Caminho_486" data-name="Caminho 486" d="M27.993-45.581l-25.46,14.7,25.46,14.7Z" transform="translate(0.199 9.796)" fill="#fff"/>
    <path id="Caminho_487" data-name="Caminho 487" d="M27.993-68.333l-25.46,14.7,25.46,14.7Z" transform="translate(0.199 0.729)" fill="#fff"/>
    <path id="Caminho_488" data-name="Caminho 488" d="M11.117,2.093a18.281,18.281,0,0,0,9.121,2.45h0a18.471,18.471,0,0,0,7.054-1.411L2.12-11.4a18.246,18.246,0,0,0,9,13.493" transform="translate(0.035 23.418)" fill="#fff"/>
    <path id="Caminho_489" data-name="Caminho 489" d="M27.993-22.827,2.534-8.127,27.993,6.564Z" transform="translate(0.2 18.864)" fill="#fff"/>
    <path id="Caminho_490" data-name="Caminho 490" d="M47.7-56.958l-25.46,14.7L47.7-27.56Z" transform="translate(8.052 5.262)" fill="#fff"/>
    <path id="Caminho_491" data-name="Caminho 491" d="M2.033-34.2v29.4l25.46-14.7Z" transform="translate(0 14.33)" fill="#fff"/>
  </g>
</svg>
